<svg id="Ebene_1" data-name="Ebene 1" xmlns="http://www.w3.org/2000/svg" viewBox="0 0 93 93"><polygon points="50.75 43.22 50.75 39.53 50.75 37.77 34.46 37.77 34.46 43.22 44.54 43.22 44.54 63.38 32.7 63.38 32.7 68.82 44.54 68.82 45.12 68.82 50.16 68.82 50.75 68.82 60.3 68.82 60.3 63.38 50.75 63.38 50.75 43.22"/><path d="M49.44,35.35a4.15,4.15,0,0,0,3.07-1.28,4.33,4.33,0,0,0-6.13-6.13,4.35,4.35,0,0,0,3.06,7.41Z" transform="translate(-2 -2.5)"/><path d="M48.5,2.5A46.5,46.5,0,1,0,95,49,46.55,46.55,0,0,0,48.5,2.5Zm0,86A39.5,39.5,0,1,1,88,49,39.55,39.55,0,0,1,48.5,88.5Z" transform="translate(-2 -2.5)"/></svg>