{
    "asset" : {
        "generator" : "Khronos glTF Blender I/O v1.6.16",
        "version" : "2.0"
    },
    "scene" : 0,
    "scenes" : [
        {
            "name" : "Scene",
            "nodes" : [
                0,
                1,
                2,
                3,
                4,
                5,
                6,
                7,
                8
            ]
        }
    ],
    "nodes" : [
        {
            "name" : "Empty",
            "translation" : [
                0.6312146782875061,
                0,
                0.012438178062438965
            ]
        },
        {
            "mesh" : 0,
            "name" : "Plane",
            "scale" : [
                0.6256716847419739,
                0.6256716847419739,
                0.6256716847419739
            ],
            "translation" : [
                0.6141198873519897,
                0,
                0.6141198873519897
            ]
        },
        {
            "mesh" : 1,
            "name" : "Man",
            "scale" : [
                0.42678922414779663,
                0.42678922414779663,
                0.42678922414779663
            ],
            "translation" : [
                4.5264973640441895,
                0,
                3.1253862380981445
            ]
        },
        {
            "mesh" : 2,
            "name" : "Cube.001",
            "rotation" : [
                0,
                -0.33609694242477417,
                0,
                0.9418274164199829
            ],
            "translation" : [
                2.3616671562194824,
                0.8372953534126282,
                3.2011382579803467
            ]
        },
        {
            "mesh" : 3,
            "name" : "Cube.002",
            "rotation" : [
                0,
                -0.0006811078055761755,
                0,
                1
            ],
            "translation" : [
                5.6280364990234375,
                0.9951105117797852,
                3.3503451347351074
            ]
        },
        {
            "mesh" : 4,
            "name" : "Cube.003",
            "rotation" : [
                0,
                -0.0006811078055761755,
                0,
                1
            ],
            "translation" : [
                5.6280364990234375,
                0.9951105117797852,
                3.003636360168457
            ]
        },
        {
            "mesh" : 5,
            "name" : "Cube.004",
            "rotation" : [
                0,
                -0.0006811078055761755,
                0,
                1
            ],
            "translation" : [
                5.6280364990234375,
                0.9951105117797852,
                2.628035068511963
            ]
        },
        {
            "mesh" : 6,
            "name" : "Cube.005",
            "rotation" : [
                0,
                -0.0006811078055761755,
                0,
                1
            ],
            "translation" : [
                5.6280364990234375,
                0.9951105117797852,
                2.223541259765625
            ]
        },
        {
            "mesh" : 7,
            "name" : "Cube.006",
            "rotation" : [
                0,
                -0.0006811078055761755,
                0,
                1
            ],
            "translation" : [
                5.6280364990234375,
                0.9951105117797852,
                1.8248260021209717
            ]
        }
    ],
    "meshes" : [
        {
            "name" : "Plane.001",
            "primitives" : [
                {
                    "attributes" : {
                        "POSITION" : 0,
                        "NORMAL" : 1,
                        "TEXCOORD_0" : 2
                    },
                    "indices" : 3
                }
            ]
        },
        {
            "name" : "Plane.002",
            "primitives" : [
                {
                    "attributes" : {
                        "POSITION" : 4,
                        "NORMAL" : 5
                    },
                    "indices" : 6
                }
            ]
        },
        {
            "name" : "Cube.001",
            "primitives" : [
                {
                    "attributes" : {
                        "POSITION" : 7,
                        "NORMAL" : 8,
                        "TEXCOORD_0" : 9
                    },
                    "indices" : 10
                }
            ]
        },
        {
            "name" : "Cube.002",
            "primitives" : [
                {
                    "attributes" : {
                        "POSITION" : 11,
                        "NORMAL" : 12,
                        "TEXCOORD_0" : 13
                    },
                    "indices" : 14
                }
            ]
        },
        {
            "name" : "Cube.003",
            "primitives" : [
                {
                    "attributes" : {
                        "POSITION" : 15,
                        "NORMAL" : 16,
                        "TEXCOORD_0" : 17
                    },
                    "indices" : 14
                }
            ]
        },
        {
            "name" : "Cube.004",
            "primitives" : [
                {
                    "attributes" : {
                        "POSITION" : 18,
                        "NORMAL" : 19,
                        "TEXCOORD_0" : 20
                    },
                    "indices" : 14
                }
            ]
        },
        {
            "name" : "Cube.005",
            "primitives" : [
                {
                    "attributes" : {
                        "POSITION" : 21,
                        "NORMAL" : 22,
                        "TEXCOORD_0" : 23
                    },
                    "indices" : 14
                }
            ]
        },
        {
            "name" : "Cube.006",
            "primitives" : [
                {
                    "attributes" : {
                        "POSITION" : 24,
                        "NORMAL" : 25,
                        "TEXCOORD_0" : 26
                    },
                    "indices" : 14
                }
            ]
        }
    ],
    "accessors" : [
        {
            "bufferView" : 0,
            "componentType" : 5126,
            "count" : 434,
            "max" : [
                8.045639991760254,
                3.177018404006958,
                7.221012115478516
            ],
            "min" : [
                -0.9876410961151123,
                0,
                -0.9876421689987183
            ],
            "type" : "VEC3"
        },
        {
            "bufferView" : 1,
            "componentType" : 5126,
            "count" : 434,
            "type" : "VEC3"
        },
        {
            "bufferView" : 2,
            "componentType" : 5126,
            "count" : 434,
            "type" : "VEC2"
        },
        {
            "bufferView" : 3,
            "componentType" : 5123,
            "count" : 648,
            "type" : "SCALAR"
        },
        {
            "bufferView" : 4,
            "componentType" : 5126,
            "count" : 7526,
            "max" : [
                0.7790983319282532,
                4.11815881729126,
                0.471267968416214
            ],
            "min" : [
                -0.7647911310195923,
                -0.0026961322873830795,
                -0.3822302520275116
            ],
            "type" : "VEC3"
        },
        {
            "bufferView" : 5,
            "componentType" : 5126,
            "count" : 7526,
            "type" : "VEC3"
        },
        {
            "bufferView" : 6,
            "componentType" : 5123,
            "count" : 44274,
            "type" : "SCALAR"
        },
        {
            "bufferView" : 7,
            "componentType" : 5126,
            "count" : 32,
            "max" : [
                0.27571284770965576,
                0.7522523403167725,
                0.15016894042491913
            ],
            "min" : [
                -0.2719055116176605,
                -0.15000000596046448,
                -0.16037239134311676
            ],
            "type" : "VEC3"
        },
        {
            "bufferView" : 8,
            "componentType" : 5126,
            "count" : 32,
            "type" : "VEC3"
        },
        {
            "bufferView" : 9,
            "componentType" : 5126,
            "count" : 32,
            "type" : "VEC2"
        },
        {
            "bufferView" : 10,
            "componentType" : 5123,
            "count" : 36,
            "type" : "SCALAR"
        },
        {
            "bufferView" : 11,
            "componentType" : 5126,
            "count" : 36,
            "max" : [
                0.04119636118412018,
                0.7522523403167725,
                0.13879942893981934
            ],
            "min" : [
                -0.27642345428466797,
                -0.15000000596046448,
                -0.08574593812227249
            ],
            "type" : "VEC3"
        },
        {
            "bufferView" : 12,
            "componentType" : 5126,
            "count" : 36,
            "type" : "VEC3"
        },
        {
            "bufferView" : 13,
            "componentType" : 5126,
            "count" : 36,
            "type" : "VEC2"
        },
        {
            "bufferView" : 14,
            "componentType" : 5123,
            "count" : 36,
            "type" : "SCALAR"
        },
        {
            "bufferView" : 15,
            "componentType" : 5126,
            "count" : 36,
            "max" : [
                0.04119636118412018,
                0.7522523403167725,
                0.13879942893981934
            ],
            "min" : [
                -0.27642345428466797,
                -0.15000000596046448,
                -0.08574593812227249
            ],
            "type" : "VEC3"
        },
        {
            "bufferView" : 16,
            "componentType" : 5126,
            "count" : 36,
            "type" : "VEC3"
        },
        {
            "bufferView" : 17,
            "componentType" : 5126,
            "count" : 36,
            "type" : "VEC2"
        },
        {
            "bufferView" : 18,
            "componentType" : 5126,
            "count" : 36,
            "max" : [
                0.04119636118412018,
                0.7522523403167725,
                0.13879942893981934
            ],
            "min" : [
                -0.27642345428466797,
                -0.15000000596046448,
                -0.08574593812227249
            ],
            "type" : "VEC3"
        },
        {
            "bufferView" : 19,
            "componentType" : 5126,
            "count" : 36,
            "type" : "VEC3"
        },
        {
            "bufferView" : 20,
            "componentType" : 5126,
            "count" : 36,
            "type" : "VEC2"
        },
        {
            "bufferView" : 21,
            "componentType" : 5126,
            "count" : 36,
            "max" : [
                0.04119636118412018,
                0.7522523403167725,
                0.13879942893981934
            ],
            "min" : [
                -0.27642345428466797,
                -0.15000000596046448,
                -0.08574593812227249
            ],
            "type" : "VEC3"
        },
        {
            "bufferView" : 22,
            "componentType" : 5126,
            "count" : 36,
            "type" : "VEC3"
        },
        {
            "bufferView" : 23,
            "componentType" : 5126,
            "count" : 36,
            "type" : "VEC2"
        },
        {
            "bufferView" : 24,
            "componentType" : 5126,
            "count" : 36,
            "max" : [
                0.04119636118412018,
                0.7522523403167725,
                0.13879942893981934
            ],
            "min" : [
                -0.27642345428466797,
                -0.15000000596046448,
                -0.08574593812227249
            ],
            "type" : "VEC3"
        },
        {
            "bufferView" : 25,
            "componentType" : 5126,
            "count" : 36,
            "type" : "VEC3"
        },
        {
            "bufferView" : 26,
            "componentType" : 5126,
            "count" : 36,
            "type" : "VEC2"
        }
    ],
    "bufferViews" : [
        {
            "buffer" : 0,
            "byteLength" : 5208,
            "byteOffset" : 0
        },
        {
            "buffer" : 0,
            "byteLength" : 5208,
            "byteOffset" : 5208
        },
        {
            "buffer" : 0,
            "byteLength" : 3472,
            "byteOffset" : 10416
        },
        {
            "buffer" : 0,
            "byteLength" : 1296,
            "byteOffset" : 13888
        },
        {
            "buffer" : 0,
            "byteLength" : 90312,
            "byteOffset" : 15184
        },
        {
            "buffer" : 0,
            "byteLength" : 90312,
            "byteOffset" : 105496
        },
        {
            "buffer" : 0,
            "byteLength" : 88548,
            "byteOffset" : 195808
        },
        {
            "buffer" : 0,
            "byteLength" : 384,
            "byteOffset" : 284356
        },
        {
            "buffer" : 0,
            "byteLength" : 384,
            "byteOffset" : 284740
        },
        {
            "buffer" : 0,
            "byteLength" : 256,
            "byteOffset" : 285124
        },
        {
            "buffer" : 0,
            "byteLength" : 72,
            "byteOffset" : 285380
        },
        {
            "buffer" : 0,
            "byteLength" : 432,
            "byteOffset" : 285452
        },
        {
            "buffer" : 0,
            "byteLength" : 432,
            "byteOffset" : 285884
        },
        {
            "buffer" : 0,
            "byteLength" : 288,
            "byteOffset" : 286316
        },
        {
            "buffer" : 0,
            "byteLength" : 72,
            "byteOffset" : 286604
        },
        {
            "buffer" : 0,
            "byteLength" : 432,
            "byteOffset" : 286676
        },
        {
            "buffer" : 0,
            "byteLength" : 432,
            "byteOffset" : 287108
        },
        {
            "buffer" : 0,
            "byteLength" : 288,
            "byteOffset" : 287540
        },
        {
            "buffer" : 0,
            "byteLength" : 432,
            "byteOffset" : 287828
        },
        {
            "buffer" : 0,
            "byteLength" : 432,
            "byteOffset" : 288260
        },
        {
            "buffer" : 0,
            "byteLength" : 288,
            "byteOffset" : 288692
        },
        {
            "buffer" : 0,
            "byteLength" : 432,
            "byteOffset" : 288980
        },
        {
            "buffer" : 0,
            "byteLength" : 432,
            "byteOffset" : 289412
        },
        {
            "buffer" : 0,
            "byteLength" : 288,
            "byteOffset" : 289844
        },
        {
            "buffer" : 0,
            "byteLength" : 432,
            "byteOffset" : 290132
        },
        {
            "buffer" : 0,
            "byteLength" : 432,
            "byteOffset" : 290564
        },
        {
            "buffer" : 0,
            "byteLength" : 288,
            "byteOffset" : 290996
        }
    ],
    "buffers" : [
        {
            "byteLength" : 291284,
            "uri" : "data:application/octet-stream;base64,"
        }
    ]
}
